<svg width="103" height="32" viewBox="0 0 103 32" fill="none" xmlns="http://www.w3.org/2000/svg">
<path opacity="0.7" d="M32.646 29.1375L33.6263 24.236H34.1375L33.2482 28.6893H35.993L35.902 29.1375H32.646ZM36.9654 29.1375L40.1864 24.236H40.6975L41.9579 29.1375H41.4397L40.2914 24.5231H40.5015L37.5256 29.1375H36.9654ZM38.1067 27.8281L38.3448 27.4079H41.1947L41.2717 27.8281H38.1067ZM43.749 29.1375L44.7293 24.236H46.4868C47.0423 24.236 47.4718 24.3574 47.7752 24.6001C48.0833 24.8428 48.2374 25.1836 48.2374 25.6224C48.2374 26.0425 48.144 26.3996 47.9573 26.6937C47.7752 26.9831 47.5138 27.2049 47.173 27.3589C46.8323 27.513 46.4285 27.59 45.9617 27.59H44.3442L44.6243 27.3449L44.2602 29.1375H43.749ZM44.6103 27.3869L44.4282 27.1349H45.9687C46.5242 27.1349 46.9536 27.0111 47.2571 26.7637C47.5652 26.5163 47.7192 26.1522 47.7192 25.6714C47.7192 25.3493 47.6095 25.1042 47.3901 24.9362C47.1707 24.7681 46.8556 24.6841 46.4448 24.6841H44.9324L45.2054 24.425L44.6103 27.3869ZM53.5204 29.1375L54.4096 24.6841H52.6801L52.7712 24.236H56.7343L56.6433 24.6841H54.9208L54.0315 29.1375H53.5204ZM62.1275 24.236H62.6386L61.6583 29.1375H61.1472L62.1275 24.236ZM58.0803 29.1375H57.5691L58.5494 24.236H59.0606L58.0803 29.1375ZM61.6513 26.8758H58.4864L58.5704 26.4206H61.7424L61.6513 26.8758ZM65.2467 26.4276H67.8375L67.7535 26.8688H65.1627L65.2467 26.4276ZM64.8476 28.6893H67.7955L67.7045 29.1375H64.2454L65.2257 24.236H68.5867L68.4957 24.6841H65.6459L64.8476 28.6893ZM73.6749 29.1375L74.5642 24.6841H72.8347L72.9257 24.236H76.8889L76.7978 24.6841H75.0753L74.1861 29.1375H73.6749ZM77.7237 29.1375L78.704 24.236H80.4685C81.024 24.236 81.4534 24.3574 81.7569 24.6001C82.065 24.8428 82.219 25.1836 82.219 25.6224C82.219 26.0379 82.1256 26.3926 81.9389 26.6867C81.7569 26.9761 81.4955 27.1979 81.1547 27.3519C80.8139 27.506 80.4101 27.583 79.9433 27.583H78.3258L78.5989 27.3449L78.2418 29.1375H77.7237ZM81.0777 29.1375L80.0764 27.3589H80.6295L81.6378 29.1375H81.0777ZM78.5849 27.3869L78.4099 27.1349H79.9503C80.5058 27.1349 80.9353 27.0111 81.2387 26.7637C81.5468 26.5163 81.7008 26.1522 81.7008 25.6714C81.7008 25.3493 81.5911 25.1042 81.3717 24.9362C81.1523 24.7681 80.8396 24.6841 80.4335 24.6841H78.914L79.1801 24.432L78.5849 27.3869ZM82.9798 29.1375L86.2008 24.236H86.7119L87.9723 29.1375H87.4542L86.3058 24.5231H86.5159L83.54 29.1375H82.9798ZM84.1212 27.8281L84.3592 27.4079H87.2091L87.2861 27.8281H84.1212ZM91.9987 29.1795C91.5133 29.1795 91.1001 29.0954 90.7594 28.9274C90.4186 28.7547 90.1572 28.5166 89.9751 28.2132C89.7977 27.9051 89.7091 27.548 89.7091 27.1419C89.7091 26.7404 89.7767 26.3623 89.9121 26.0075C90.0522 25.6527 90.2505 25.34 90.5073 25.0692C90.7687 24.7938 91.0815 24.5791 91.4456 24.425C91.8143 24.271 92.2298 24.194 92.6919 24.194C93.0841 24.194 93.4318 24.2547 93.7353 24.376C94.0387 24.4974 94.2721 24.6748 94.4355 24.9082L94.0714 25.2303C93.9173 25.0389 93.7236 24.8965 93.4902 24.8032C93.2568 24.7051 92.9767 24.6561 92.6499 24.6561C92.2812 24.6561 91.9451 24.7215 91.6416 24.8522C91.3429 24.9782 91.0885 25.1556 90.8784 25.3843C90.6683 25.6131 90.505 25.8768 90.3883 26.1756C90.2762 26.4697 90.2202 26.7847 90.2202 27.1208C90.2202 27.4336 90.2879 27.7114 90.4233 27.9541C90.5633 28.1922 90.7687 28.3789 91.0394 28.5143C91.3102 28.6496 91.6416 28.7173 92.0337 28.7173C92.3558 28.7173 92.6476 28.6683 92.909 28.5703C93.1704 28.4723 93.3992 28.3275 93.5952 28.1362L93.8963 28.4793C93.6816 28.708 93.4085 28.883 93.0771 29.0044C92.7456 29.1211 92.3862 29.1795 91.9987 29.1795ZM96.4153 27.9051L96.4923 27.2679L100.028 24.236H100.708L98.0608 26.5117L97.7527 26.7637L96.4153 27.9051ZM95.7081 29.1375L96.6884 24.236H97.1995L96.2192 29.1375H95.7081ZM99.2652 29.1375L97.5987 26.7007L97.9488 26.3576L99.8463 29.1375H99.2652Z" fill="white"/>
<path d="M35.0405 18.9503L38.6959 0.900674H42.0902L39.0092 16.1139H48.5655L47.991 18.9503H35.0405Z" fill="white"/>
<path d="M48.9817 18.9503L60.8617 0.900674H64.2299L68.773 18.9503H65.4049L61.5928 2.62828H62.9505L52.611 18.9503H48.9817ZM53.6293 14.7731L55.0653 12.143H64.9088L65.3526 14.7731H53.6293Z" fill="white"/>
<path d="M69.3829 18.9503L73.0383 0.900674H80.0879C82.2986 0.900674 84.0044 1.382 85.2055 2.34464C86.4239 3.30729 87.0332 4.63953 87.0332 6.34135C87.0332 7.87127 86.6763 9.19491 85.9627 10.3123C85.2664 11.4124 84.2655 12.2634 82.96 12.865C81.6545 13.4495 80.1053 13.7417 78.3125 13.7417H72.3594L74.161 12.143L72.7772 18.9503H69.3829ZM74.0827 12.5298L72.8816 10.9053H78.443C80.0792 10.9053 81.3499 10.5443 82.2551 9.82235C83.1602 9.10037 83.6128 8.04317 83.6128 6.65077C83.6128 5.67094 83.2733 4.94036 82.5945 4.45903C81.933 3.97771 80.9757 3.73705 79.7224 3.73705H74.4221L76.1976 2.06101L74.0827 12.5298Z" fill="white"/>
<path d="M93.0015 19.2082C92.0442 19.2082 91.1129 19.1136 90.2078 18.9245C89.32 18.7354 88.5019 18.4862 87.7534 18.1768C87.0224 17.8501 86.4131 17.4892 85.9257 17.0938L87.3618 14.4637C87.8666 14.8762 88.441 15.2286 89.085 15.5209C89.7291 15.8131 90.4079 16.0366 91.1216 16.1913C91.8527 16.346 92.5838 16.4234 93.3148 16.4234C94.2026 16.4234 94.9772 16.3202 95.6386 16.1139C96.3001 15.9077 96.8049 15.6154 97.153 15.2372C97.5185 14.8591 97.7013 14.4035 97.7013 13.8706C97.7013 13.3893 97.5359 13.0025 97.2052 12.7103C96.8745 12.4009 96.4306 12.1516 95.8736 11.9625C95.334 11.7562 94.7335 11.5672 94.072 11.3952C93.428 11.2062 92.7752 10.9999 92.1138 10.7764C91.4523 10.5357 90.8518 10.2435 90.3122 9.89971C89.7726 9.53871 89.3287 9.08318 88.9806 8.53309C88.6499 7.98301 88.4845 7.2954 88.4845 6.47028C88.4845 5.28416 88.8152 4.26134 89.4767 3.40184C90.1555 2.52514 91.0868 1.84613 92.2704 1.36481C93.4715 0.883484 94.864 0.642822 96.448 0.642822C97.6317 0.642822 98.7544 0.771748 99.8162 1.0296C100.878 1.28745 101.792 1.66564 102.558 2.16415L101.226 4.82002C100.547 4.37308 99.7814 4.02928 98.9285 3.78862C98.0756 3.54795 97.1878 3.42762 96.2653 3.42762C95.3601 3.42762 94.5768 3.53936 93.9154 3.76283C93.2539 3.9863 92.7491 4.29572 92.401 4.6911C92.0529 5.08647 91.8701 5.5506 91.8527 6.0835C91.8527 6.58201 92.018 6.98598 92.3488 7.2954C92.6795 7.58764 93.1147 7.83689 93.6543 8.04317C94.1939 8.24945 94.7944 8.44714 95.4558 8.63623C96.1173 8.80814 96.7701 9.00582 97.4141 9.22929C98.0755 9.45276 98.6848 9.7364 99.2418 10.0802C99.7988 10.424 100.243 10.8624 100.573 11.3952C100.904 11.911 101.069 12.5642 101.069 13.3549C101.069 14.541 100.73 15.5725 100.051 16.4491C99.3897 17.3258 98.4498 18.0049 97.2313 18.4862C96.0303 18.9675 94.6203 19.2082 93.0015 19.2082Z" fill="white"/>
<path d="M28.6481 0.85437C28.6481 0.85437 29.061 0.858618 29.6934 0.862867C30.3172 0.867115 31.1603 0.871363 31.9862 0.875611C32.8294 0.884108 33.6682 0.884108 34.2963 0.892605C34.9201 0.892605 35.3459 0.896853 35.3459 0.896853C35.3459 0.896853 35.1093 2.02689 34.8813 3.15693C34.6404 4.29547 34.4081 5.43825 34.4081 5.43825C34.4081 5.43825 33.9866 5.4425 33.3413 5.43825C32.7003 5.434 31.8486 5.42551 30.9968 5.42126C30.1451 5.42126 29.2976 5.41701 28.6567 5.40851C28.0157 5.40851 27.5898 5.40427 27.5898 5.40427C27.5898 5.40427 27.8566 4.26998 28.119 3.12295C28.3814 1.98866 28.6481 0.85437 28.6481 0.85437Z" fill="#DF4035"/>
<path d="M26.4242 9.98389C26.4242 9.98389 26.8587 9.98813 27.5126 9.98389C28.1578 9.98813 29.0311 9.99238 29.8957 9.99663C30.7647 9.99663 31.638 10.0009 32.2875 10.0009C32.9414 10.0051 33.3716 10.0009 33.3716 10.0009C33.3716 10.0009 33.1178 11.1437 32.8511 12.2864C32.5887 13.4292 32.3133 14.5763 32.3133 14.5763C32.3133 14.5763 31.866 14.572 31.1992 14.5763C30.5367 14.5678 29.6462 14.5678 28.7687 14.5678C27.8782 14.5678 26.9878 14.5678 26.3253 14.5635C25.6585 14.5635 25.2197 14.5635 25.2197 14.5635C25.2197 14.5635 25.5295 13.4207 25.8306 12.2652C26.1317 11.1224 26.4242 9.98389 26.4242 9.98389Z" fill="#DF4035"/>
<path d="M20.7886 5.38298C20.7886 5.38298 21.2059 5.37024 21.8512 5.38298C22.4835 5.38298 23.3396 5.38723 24.1913 5.39148C25.0431 5.39573 25.8948 5.39998 26.5358 5.40847C27.1681 5.40847 27.5983 5.40847 27.5983 5.40847C27.5983 5.40847 27.3273 6.54701 27.0563 7.68979C26.781 8.83683 26.5014 9.98386 26.5014 9.98386C26.5014 9.98386 26.0626 9.98386 25.4087 9.97536C24.7548 9.97961 23.8902 9.97961 23.0126 9.97111C22.148 9.97111 21.279 9.96687 20.6252 9.96687C19.9756 9.96687 19.5454 9.96262 19.5454 9.96262C19.5454 9.96262 19.8594 8.81134 20.1778 7.66855C20.4832 6.51727 20.7886 5.38298 20.7886 5.38298Z" fill="#DF4035"/>
<path d="M18.126 14.5508C18.126 14.5508 18.5691 14.555 19.2316 14.555C19.9027 14.555 20.7888 14.5635 21.6707 14.555C22.5612 14.5593 23.4473 14.5593 24.1141 14.5593C24.7766 14.5635 25.2239 14.5635 25.2239 14.5635C25.2239 14.5635 24.9013 15.7063 24.583 16.8576C24.2474 18.0046 23.9162 19.1474 23.9162 19.1474C23.9162 19.1474 23.4645 19.1559 22.7848 19.1517C22.1052 19.1517 21.2104 19.1517 20.307 19.1559C19.3951 19.1474 18.5003 19.1474 17.8292 19.1559C17.1495 19.1517 16.7021 19.1517 16.7021 19.1517C16.7021 19.1517 17.0549 18.0089 17.4248 16.8491C17.7733 15.6978 18.126 14.5508 18.126 14.5508Z" fill="#DF4035"/>
<path d="M15.3168 0.773682C15.3168 0.773682 15.7341 0.77793 16.3621 0.782178C16.9945 0.786426 17.8333 0.790675 18.6679 0.794923C19.5067 0.799171 20.3455 0.807668 20.9736 0.811916C21.6017 0.811916 22.0232 0.816164 22.0232 0.816164C22.0232 0.816164 21.735 1.94196 21.4425 3.08899C21.1543 4.22752 20.8618 5.38305 20.8618 5.38305C20.8618 5.38305 20.4316 5.37456 19.7906 5.37031C19.154 5.36606 18.3022 5.36181 17.4548 5.36181C16.5944 5.35756 15.7513 5.35331 15.1103 5.34907C14.4607 5.34057 14.0435 5.34482 14.0435 5.34482C14.0435 5.34482 14.3747 4.19779 14.693 3.05075C15.0071 1.90372 15.3168 0.773682 15.3168 0.773682Z" fill="#DF4035"/>
<path d="M7.22965 5.31503C7.22965 5.31503 7.65982 5.31078 8.30509 5.31928C8.94175 5.32352 9.7935 5.32352 10.6495 5.32777C11.497 5.33202 12.353 5.33627 12.9897 5.33627C13.6307 5.34052 14.0522 5.34476 14.0522 5.34476C14.0522 5.34476 13.721 6.48755 13.3726 7.64308C13.0241 8.79011 12.6671 9.94139 12.6671 9.94139C12.6671 9.94139 12.2369 9.93714 11.583 9.94139C10.9335 9.93714 10.0645 9.93289 9.19125 9.92865C8.3266 9.93289 7.45334 9.92865 6.79947 9.9244C6.1456 9.9244 5.71973 9.9244 5.71973 9.9244C5.71973 9.9244 6.10258 8.76887 6.48974 7.61759C6.8683 6.46206 7.22965 5.31503 7.22965 5.31503Z" fill="#DF4035"/>
<path d="M1.9989 0.692993C1.9989 0.692993 2.41617 0.697241 3.04423 0.705738C3.67229 0.705738 4.50683 0.714234 5.34567 0.714234C6.18452 0.718483 7.02336 0.726979 7.65142 0.726979C8.27948 0.735476 8.70105 0.735476 8.70105 0.735476C8.70105 0.735476 8.36551 1.86976 8.02137 3.01255C7.66433 4.16383 7.31588 5.31936 7.31588 5.31936C7.31588 5.31936 6.88571 5.30661 6.24474 5.30661C5.60808 5.31086 4.75633 5.30661 3.90458 5.30236C3.04423 5.28962 2.19248 5.28962 1.54291 5.28537C0.897647 5.28537 0.476074 5.28962 0.476074 5.28962C0.476074 5.28962 0.871837 4.13834 1.259 2.97856C1.63325 1.83578 1.9989 0.692993 1.9989 0.692993Z" fill="#DF4035"/>
</svg>
